<svg width="50" height="50" viewBox="0 0 50 50" fill="none" xmlns="http://www.w3.org/2000/svg">
<path opacity="0.2" d="M15.625 28.125V35.9375C15.625 36.8004 16.3246 37.5 17.1875 37.5H36.0156L43.75 43.75V18.75C43.75 17.8871 43.0504 17.1875 42.1875 17.1875H34.375V26.5625C34.375 27.4254 33.6754 28.125 32.8125 28.125H15.625Z" fill="#6658EA"/>
<path fill-rule="evenodd" clip-rule="evenodd" d="M13.9844 28.125L6.25 34.375V9.375C6.25 8.51206 6.94956 7.8125 7.8125 7.8125H32.8125C33.6754 7.8125 34.375 8.51206 34.375 9.375V26.5625C34.375 27.4254 33.6754 28.125 32.8125 28.125H13.9844Z" stroke="#6658EA" stroke-width="3" stroke-linecap="round" stroke-linejoin="round"/>
<path d="M15.625 28.125V35.9375C15.625 36.8004 16.3246 37.5 17.1875 37.5H36.0156L43.75 43.75V18.75C43.75 17.8871 43.0504 17.1875 42.1875 17.1875H34.375" stroke="#6658EA" stroke-width="3" stroke-linecap="round" stroke-linejoin="round"/>
</svg>
