<svg width="18" height="19" viewBox="0 0 18 19" fill="none" xmlns="http://www.w3.org/2000/svg">
<path d="M16.0714 0.41156H1.92857C1.41708 0.41156 0.926543 0.620778 0.564865 0.993188C0.203188 1.3656 0 1.8707 0 2.39736L0 16.9599C0 17.4866 0.203188 17.9917 0.564865 18.3641C0.926543 18.7365 1.41708 18.9457 1.92857 18.9457H7.44308V12.6445H4.91183V9.67864H7.44308V7.41813C7.44308 4.84693 8.92969 3.42667 11.2066 3.42667C12.2971 3.42667 13.4373 3.62691 13.4373 3.62691V6.15053H12.1809C10.943 6.15053 10.5569 6.94154 10.5569 7.75282V9.67864H13.3204L12.8784 12.6445H10.5569V18.9457H16.0714C16.5829 18.9457 17.0735 18.7365 17.4351 18.3641C17.7968 17.9917 18 17.4866 18 16.9599V2.39736C18 1.8707 17.7968 1.3656 17.4351 0.993188C17.0735 0.620778 16.5829 0.41156 16.0714 0.41156Z" fill="white"/>
</svg>
