<svg width="1600" height="783" viewBox="0 0 1600 783" fill="none" xmlns="http://www.w3.org/2000/svg">
<rect width="1600" height="783" fill="#FFF9F3"/>
<mask id="mask0_291_2" style="mask-type:alpha" maskUnits="userSpaceOnUse" x="0" y="0" width="1601" height="783">
<rect width="1601" height="783" fill="#F9F4EC"/>
</mask>
<g mask="url(#mask0_291_2)">
<circle cx="1453" cy="473" r="376" fill="url(#paint0_linear_291_2)"/>
<circle opacity="0.1" cx="996" cy="-41" r="102.5" fill="url(#paint1_linear_291_2)" stroke="#FF790C" stroke-width="5"/>
<circle opacity="0.1" cx="-20.5" cy="267.5" r="62.5" fill="url(#paint2_linear_291_2)" stroke="#FF790C" stroke-width="6"/>
<path d="M282 804.989C282 900.258 101.707 957 6.46017 957C-88.7869 957 -166 879.769 -166 784.5C-166 689.231 -88.7869 612 6.46017 612C101.707 612 282 709.719 282 804.989Z" fill="url(#paint3_linear_291_2)"/>
</g>
<defs>
<linearGradient id="paint0_linear_291_2" x1="1014.49" y1="22.4578" x2="1861.21" y2="62.1741" gradientUnits="userSpaceOnUse">
<stop stop-color="#FFF1D7"/>
<stop offset="1" stop-color="#FFD3C0"/>
</linearGradient>
<linearGradient id="paint1_linear_291_2" x1="873.544" y1="-166.816" x2="1109.99" y2="-155.725" gradientUnits="userSpaceOnUse">
<stop stop-color="#FFF1D7"/>
<stop offset="1" stop-color="#FFD3C0"/>
</linearGradient>
<linearGradient id="paint2_linear_291_2" x1="-96.8894" y1="189.015" x2="50.6105" y2="195.933" gradientUnits="userSpaceOnUse">
<stop stop-color="#FFF1D7"/>
<stop offset="1" stop-color="#FFD3C0"/>
</linearGradient>
<linearGradient id="paint3_linear_291_2" x1="-194.672" y1="577.802" x2="193.693" y2="596.014" gradientUnits="userSpaceOnUse">
<stop stop-color="#AAFFE5"/>
<stop offset="1" stop-color="#CEDCFF"/>
</linearGradient>
</defs>
</svg>
